/home/minht/3dpredictsim_tutorial/predsim_tutorial/Results/Case_8/GRF.mot
version=1
nRows=25
nColumns=19
inDegrees=yes
endheader 
time	r_ground_force_vx	r_ground_force_vy	r_ground_force_vz	r_ground_force_px	r_ground_force_py	r_ground_force_pz	l_ground_force_vx	l_ground_force_vy	l_ground_force_vz	l_ground_force_px	l_ground_force_py	l_ground_force_pz	r_ground_torque_x	r_ground_torque_y	r_ground_torque_z	l_ground_torque_x	l_ground_torque_y	l_ground_torque_z	
          0.00000000	        -50.04649023	         30.45551001	         -7.77003044	         -5.99618364	          0.00000000	          2.68821839	         58.75995846	        884.55751735	        -32.95999194	          0.00508491	          0.00000000	         -0.00327680	          0.00000000	        186.92943050	          0.00000000	          0.00000000	          5.93563074	          0.00000000	
          0.03219879	       -100.80427395	         86.73022114	        -26.94951405	         -1.95321656	          0.00000000	          0.92620260	         75.77464916	        855.90446475	        -30.87155068	          0.01901489	          0.00000000	         -0.00889081	          0.00000000	        153.88425559	          0.00000000	          0.00000000	         13.98881760	          0.00000000	
          0.06439759	        -26.82559341	        264.38713363	        -16.09686278	         -0.55187654	          0.00000000	          0.27770832	         84.16413950	        778.33843740	        -21.67662940	          0.07040292	          0.00000000	         -0.02846132	          0.00000000	         25.77601574	          0.00000000	          0.00000000	          6.47334565	          0.00000000	
          0.09659638	       -124.16266120	        607.01186090	        -14.03045574	         -0.18913368	          0.00000000	          0.10068327	         76.87838771	        652.55894516	         -6.74447444	          0.22880696	          0.00000000	         -0.07421331	          0.00000000	         24.61687459	          0.00000000	          0.00000000	         12.98364994	          0.00000000	
          0.12879517	       -133.50103212	        687.05092887	        -15.77632931	         -0.11607949	          0.00000000	          0.06638155	         50.39107732	        490.60564664	         10.06683915	          0.35655191	          0.00000000	         -0.11125035	          0.00000000	         19.35774264	          0.00000000	          0.00000000	         18.00220013	          0.00000000	
          0.16099397	       -122.04552723	        703.57515049	        -12.99620164	         -0.07272031	          0.00000000	          0.04621885	         25.46168201	        349.61134408	         19.78937186	          0.52003509	          0.00000000	         -0.15914592	          0.00000000	         13.47446215	          0.00000000	          0.00000000	         22.92697367	          0.00000000	
          0.19319276	       -102.93360974	        720.92820994	         -9.31642123	         -0.04806916	          0.00000000	          0.03444418	          9.06714322	        263.97765121	         24.48615987	          0.70955234	          0.00000000	         -0.21607145	          0.00000000	          9.08467111	          0.00000000	          0.00000000	         26.58626673	          0.00000000	
          0.22539155	        -84.03300750	        729.92779019	         -6.32522803	         -0.03661923	          0.00000000	          0.02840796	          2.62733000	        220.22873313	         27.17076505	          0.86396154	          0.00000000	         -0.26301792	          0.00000000	          6.73964330	          0.00000000	          0.00000000	         29.92135562	          0.00000000	
          0.25759035	        -70.60212340	        732.70350071	         -4.14969000	         -0.03190775	          0.00000000	          0.02490900	          0.84758718	        199.92774807	         30.30678408	          0.95772900	          0.00000000	         -0.29204214	          0.00000000	          5.88495959	          0.00000000	          0.00000000	         33.89449485	          0.00000000	
          0.28978914	        -58.54933983	        734.44849049	         -2.38470192	         -0.02863261	          0.00000000	          0.02230691	          1.27290840	        185.03448836	         31.82852010	          1.03859083	          0.00000000	         -0.31799884	          0.00000000	          5.33447002	          0.00000000	          0.00000000	         36.93806314	          0.00000000	
          0.32198793	        -47.86709871	        738.52909938	         -0.39516977	         -0.02561752	          0.00000000	          0.02016757	          2.48621534	        170.88633180	         32.73163961	          1.13142612	          0.00000000	         -0.34839105	          0.00000000	          4.93346024	          0.00000000	          0.00000000	         40.15313642	          0.00000000	
          0.35418673	        -38.67512134	        746.44498951	          2.46813916	         -0.02258884	          0.00000000	          0.01831084	          2.80056598	        155.88629768	         31.98641841	          1.25532700	          0.00000000	         -0.38859045	          0.00000000	          4.40398634	          0.00000000	          0.00000000	         42.04409686	          0.00000000	
          0.38638552	        -32.17923614	        763.82459859	          5.32445795	         -0.01842568	          0.00000000	          0.01561521	          0.31168490	        133.01491363	         26.76128247	          1.51256026	          0.00000000	         -0.46928609	          0.00000000	          3.26346193	          0.00000000	          0.00000000	         39.88739833	          0.00000000	
          0.41858431	        -27.80603240	        799.92778860	          8.83825392	         -0.01126993	          0.00000000	          0.01007108	         -7.46560562	         87.39561562	         19.42243059	          2.43571111	          0.00000000	         -0.75354172	          0.00000000	          1.45733834	          0.00000000	          0.00000000	         39.10450874	          0.00000000	
          0.45078310	        -22.65701983	        846.27851415	         13.41738035	         -0.00319322	          0.00000000	          0.00296689	          0.00000000	          0.00000000	          0.00000000	          0.00000000	          0.00000000	          0.00000000	          0.00000000	         -0.95169142	          0.00000000	          0.00000000	          0.00000000	          0.00000000	
          0.48298190	        -12.19182670	        879.05619334	         16.47350434	         -0.00022586	          0.00000000	          0.00026385	          0.00000000	          0.00000000	          0.00000000	          0.00000000	          0.00000000	          0.00000000	          0.00000000	         -0.28466165	          0.00000000	          0.00000000	          0.00000000	          0.00000000	
          0.51518069	         -1.32005842	        882.65841223	         18.54113164	         -0.00002273	          0.00000000	          0.00004638	          0.00000000	          0.00000000	          0.00000000	          0.00000000	          0.00000000	          0.00000000	          0.00000000	         -0.06131670	          0.00000000	          0.00000000	          0.00000000	          0.00000000	
          0.54737948	          8.91077618	        874.56319717	         20.30535632	          0.00000099	          0.00000000	          0.00001695	          0.00000000	          0.00000000	          0.00000000	          0.00000000	          0.00000000	          0.00000000	          0.00000000	         -0.02419144	          0.00000000	          0.00000000	          0.00000000	          0.00000000	
          0.57957828	         19.04588624	        867.89637913	         21.99284461	          0.00001374	          0.00000000	          0.00001879	          0.00000000	          0.00000000	          0.00000000	          0.00000000	          0.00000000	          0.00000000	          0.00000000	         -0.02814528	          0.00000000	          0.00000000	          0.00000000	          0.00000000	
          0.61177707	         29.22163242	        865.63126436	         23.61323272	          0.00005860	          0.00000000	          0.00003922	          0.00000000	          0.00000000	          0.00000000	          0.00000000	          0.00000000	          0.00000000	          0.00000000	         -0.06175388	          0.00000000	          0.00000000	          0.00000000	          0.00000000	
          0.64397586	         39.60323345	        871.34175986	         25.31843427	          0.00018480	          0.00000000	          0.00008012	          0.00000000	          0.00000000	          0.00000000	          0.00000000	          0.00000000	          0.00000000	          0.00000000	         -0.13487533	          0.00000000	          0.00000000	          0.00000000	          0.00000000	
          0.67617466	         48.94779929	        879.01500365	         26.76626478	          0.00035742	          0.00000000	          0.00011338	          0.00000000	          0.00000000	          0.00000000	          0.00000000	          0.00000000	          0.00000000	          0.00000000	         -0.20543770	          0.00000000	          0.00000000	          0.00000000	          0.00000000	
          0.70837345	         57.71759782	        888.35359276	         28.05867064	          0.00043922	          0.00000000	          0.00010844	          0.00000000	          0.00000000	          0.00000000	          0.00000000	          0.00000000	          0.00000000	          0.00000000	         -0.20975908	          0.00000000	          0.00000000	          0.00000000	          0.00000000	
          0.74057224	         65.17219976	        896.29885581	         28.94002968	          0.00035530	          0.00000000	          0.00007011	          0.00000000	          0.00000000	          0.00000000	          0.00000000	          0.00000000	          0.00000000	          0.00000000	         -0.14116955	          0.00000000	          0.00000000	          0.00000000	          0.00000000	
          0.77277104	         71.72638387	        901.15663073	         29.33754869	          0.00016566	          0.00000000	          0.00002628	          0.00000000	          0.00000000	          0.00000000	          0.00000000	          0.00000000	          0.00000000	          0.00000000	         -0.05295758	          0.00000000	          0.00000000	          0.00000000	          0.00000000	
